<mxfile host="app.diagrams.net" agent="Mozilla/5.0 (Windows NT 10.0; Win64; x64) AppleWebKit/537.36 (KHTML, like Gecko) Chrome/130.0.0.0 Safari/537.36" version="24.8.4">
  <diagram name="Página-1" id="DtaN1M-D1OzeRYKOlT-M">
    <mxGraphModel dx="794" dy="446" grid="1" gridSize="10" guides="1" tooltips="1" connect="1" arrows="1" fold="1" page="1" pageScale="1" pageWidth="827" pageHeight="1169" math="0" shadow="0">
      <root>
        <mxCell id="0" />
        <mxCell id="1" parent="0" />
        <mxCell id="h3lfV8-L2mFKAfdwMKCG-9" value="" style="whiteSpace=wrap;html=1;aspect=fixed;strokeColor=#6c8ebf;align=center;verticalAlign=middle;fontFamily=Helvetica;fontSize=12;fontColor=default;fillColor=#dae8fc;" vertex="1" parent="1">
          <mxGeometry x="590" y="40" width="480" height="480" as="geometry" />
        </mxCell>
        <mxCell id="h3lfV8-L2mFKAfdwMKCG-1" value="" style="whiteSpace=wrap;html=1;aspect=fixed;fillColor=#dae8fc;strokeColor=#6c8ebf;" vertex="1" parent="1">
          <mxGeometry x="70" y="40" width="480" height="480" as="geometry" />
        </mxCell>
        <mxCell id="h3lfV8-L2mFKAfdwMKCG-2" value="data" style="rounded=1;whiteSpace=wrap;html=1;fillColor=#ffe6cc;strokeColor=#d79b00;" vertex="1" parent="1">
          <mxGeometry x="80" y="50" width="60" height="20" as="geometry" />
        </mxCell>
        <mxCell id="h3lfV8-L2mFKAfdwMKCG-3" value="[{&lt;br&gt;&quot;description&quot;:&quot;Name description&quot;,&lt;br&gt;&quot;path&quot;:&quot;name route&quot;&lt;br&gt;}]" style="whiteSpace=wrap;html=1;aspect=fixed;" vertex="1" parent="1">
          <mxGeometry x="90" y="90" width="200" height="200" as="geometry" />
        </mxCell>
        <mxCell id="h3lfV8-L2mFKAfdwMKCG-4" value="&lt;br&gt;[{&lt;br&gt;&quot;name_project&quot;:&quot;name of project&quot;,&lt;br&gt;&quot;description&quot;:&quot;description of project&quot;,&lt;div&gt;&quot;is_img&quot;:true/false //this is a image&lt;/div&gt;&lt;div&gt;&quot;link&quot;:&quot;link of git hub&quot;&lt;br&gt;}]&lt;/div&gt;" style="whiteSpace=wrap;html=1;aspect=fixed;" vertex="1" parent="1">
          <mxGeometry x="330" y="90" width="200" height="200" as="geometry" />
        </mxCell>
        <mxCell id="h3lfV8-L2mFKAfdwMKCG-5" value="{&lt;div&gt;&quot;link_image&quot;:&quot;link of image&quot;,&lt;/div&gt;&lt;div&gt;&quot;details&quot;:&quot;details of your person&quot;&lt;/div&gt;&lt;div&gt;}&lt;/div&gt;" style="whiteSpace=wrap;html=1;aspect=fixed;" vertex="1" parent="1">
          <mxGeometry x="210" y="310" width="200" height="200" as="geometry" />
        </mxCell>
        <mxCell id="h3lfV8-L2mFKAfdwMKCG-13" style="edgeStyle=orthogonalEdgeStyle;rounded=0;orthogonalLoop=1;jettySize=auto;html=1;entryX=0.25;entryY=0;entryDx=0;entryDy=0;fontFamily=Helvetica;fontSize=12;fontColor=default;exitX=1;exitY=0;exitDx=0;exitDy=0;" edge="1" parent="1" source="h3lfV8-L2mFKAfdwMKCG-6" target="h3lfV8-L2mFKAfdwMKCG-12">
          <mxGeometry relative="1" as="geometry">
            <Array as="points">
              <mxPoint x="170" y="10" />
              <mxPoint x="803" y="10" />
            </Array>
          </mxGeometry>
        </mxCell>
        <mxCell id="h3lfV8-L2mFKAfdwMKCG-6" value="links" style="rounded=1;whiteSpace=wrap;html=1;strokeColor=#d79b00;align=center;verticalAlign=middle;fontFamily=Helvetica;fontSize=12;fillColor=#ffe6cc;" vertex="1" parent="1">
          <mxGeometry x="100" y="100" width="70" height="30" as="geometry" />
        </mxCell>
        <mxCell id="h3lfV8-L2mFKAfdwMKCG-15" style="edgeStyle=orthogonalEdgeStyle;rounded=0;orthogonalLoop=1;jettySize=auto;html=1;entryX=0.25;entryY=1;entryDx=0;entryDy=0;fontFamily=Helvetica;fontSize=12;fontColor=default;" edge="1" parent="1" target="h3lfV8-L2mFKAfdwMKCG-14">
          <mxGeometry relative="1" as="geometry">
            <mxPoint x="273" y="330" as="sourcePoint" />
            <Array as="points">
              <mxPoint x="273" y="300" />
              <mxPoint x="953" y="300" />
            </Array>
          </mxGeometry>
        </mxCell>
        <mxCell id="h3lfV8-L2mFKAfdwMKCG-7" value="sobre_mim" style="rounded=1;whiteSpace=wrap;html=1;strokeColor=#d79b00;align=center;verticalAlign=middle;fontFamily=Helvetica;fontSize=12;fillColor=#ffe6cc;" vertex="1" parent="1">
          <mxGeometry x="220" y="320" width="70" height="30" as="geometry" />
        </mxCell>
        <mxCell id="h3lfV8-L2mFKAfdwMKCG-18" style="edgeStyle=orthogonalEdgeStyle;rounded=0;orthogonalLoop=1;jettySize=auto;html=1;entryX=0;entryY=0.5;entryDx=0;entryDy=0;fontFamily=Helvetica;fontSize=12;fontColor=default;fillColor=#f8cecc;strokeColor=#b85450;" edge="1" parent="1" source="h3lfV8-L2mFKAfdwMKCG-8" target="h3lfV8-L2mFKAfdwMKCG-17">
          <mxGeometry relative="1" as="geometry">
            <Array as="points">
              <mxPoint x="560" y="115" />
              <mxPoint x="560" y="385" />
            </Array>
          </mxGeometry>
        </mxCell>
        <mxCell id="h3lfV8-L2mFKAfdwMKCG-8" value="projects" style="rounded=1;whiteSpace=wrap;html=1;strokeColor=#d79b00;align=center;verticalAlign=middle;fontFamily=Helvetica;fontSize=12;fillColor=#ffe6cc;" vertex="1" parent="1">
          <mxGeometry x="340" y="100" width="70" height="30" as="geometry" />
        </mxCell>
        <mxCell id="h3lfV8-L2mFKAfdwMKCG-10" value="front" style="rounded=1;whiteSpace=wrap;html=1;fillColor=#ffe6cc;strokeColor=#d79b00;" vertex="1" parent="1">
          <mxGeometry x="600" y="50" width="60" height="20" as="geometry" />
        </mxCell>
        <mxCell id="h3lfV8-L2mFKAfdwMKCG-11" value="Suas informaçoes dentro de inputs e um link para meu contato." style="whiteSpace=wrap;html=1;aspect=fixed;align=center;verticalAlign=middle;fontFamily=Helvetica;fontSize=12;" vertex="1" parent="1">
          <mxGeometry x="610" y="150" width="130" height="130" as="geometry" />
        </mxCell>
        <mxCell id="h3lfV8-L2mFKAfdwMKCG-12" value="Loop para criação de links de acordo com {links};" style="whiteSpace=wrap;html=1;aspect=fixed;align=center;verticalAlign=middle;fontFamily=Helvetica;fontSize=12;" vertex="1" parent="1">
          <mxGeometry x="770" y="150" width="130" height="130" as="geometry" />
        </mxCell>
        <mxCell id="h3lfV8-L2mFKAfdwMKCG-14" value="Sobre mim;&lt;br&gt;minha foto {imagem};&lt;br&gt;Detalhes {details};" style="whiteSpace=wrap;html=1;aspect=fixed;align=center;verticalAlign=middle;fontFamily=Helvetica;fontSize=12;" vertex="1" parent="1">
          <mxGeometry x="920" y="150" width="130" height="130" as="geometry" />
        </mxCell>
        <mxCell id="h3lfV8-L2mFKAfdwMKCG-17" value="Loop para:&lt;br&gt;{name_project};&lt;br&gt;{description};&lt;br&gt;{is_img}?&lt;br&gt;img {link}&lt;div&gt;:&lt;/div&gt;&lt;div&gt;a {link};&lt;/div&gt;" style="whiteSpace=wrap;html=1;aspect=fixed;align=center;verticalAlign=middle;fontFamily=Helvetica;fontSize=12;" vertex="1" parent="1">
          <mxGeometry x="610" y="320" width="130" height="130" as="geometry" />
        </mxCell>
      </root>
    </mxGraphModel>
  </diagram>
</mxfile>
